<svg height="313.74751" viewBox="0 0 220.94 217.56" width="318.727629" xmlns="http://www.w3.org/2000/svg"><path d="m0 0h.26c-.07.06-.2.19-.26.26z" fill="#f0b501"/><path d="m99.82 6.16c.78-.09 2.33-.28 3.1-.37 3.8 21.15 7.33 42.35 11.31 63.46 3.9-21.12 7.55-42.28 11.22-63.44.72.09 2.16.26 2.89.35-.62 20.98-3.15 41.89-3.71 62.87 2.4-3.89 4.1-8.16 5.94-12.33 6.57-15.07 13.45-30.01 19.87-45.15 1.07.18 2.14.35 3.22.51l-.21.6c-6.67 20.49-13.28 41-19.69 61.56 13.38-16.88 26.43-34.04 39.64-51.06.88.42 1.78.84 2.68 1.25l-.25.44c-10.88 18.31-22.58 36.14-33.26 54.57 17.2-12.67 33.34-26.75 50.54-39.41l.78-.51c.13.58.39 1.74.52 2.32-6.68 8.13-14.88 14.86-22.12 22.48-7.93 7.8-15.93 15.55-23.72 23.49 19.67-9.22 39.63-17.82 59.16-27.33.58.87 1.18 1.74 1.8 2.6l-.47.29c-18.12 11.14-36.79 21.41-54.71 32.86 21.02-3.56 41.92-7.84 62.87-11.8l.82-.16c0 1.08.01 2.17.03 3.26-16.82 4.85-33.51 10.15-50.3 15.11-4.1 1.22-8.18 2.5-12.17 4.06 21.72.65 43.43 1.91 65.11 3.25v2.93c-21.46 1.28-42.95 2.3-64.42 3.5 20.36 6.76 41.04 12.49 61.52 18.89.04.77.14 2.3.19 3.06l-.81-.12c-21.23-3.85-42.4-8.07-63.61-12.02 18.34 11.33 37.03 22.1 55.56 33.13-.44.93-.88 1.86-1.31 2.8-19.43-8.8-38.68-18.03-58.28-26.44 14.53 15.47 30.31 29.71 45.13 44.91-.56.99-1.11 2-1.63 3.02l-.42-.42c-2.94-3.03-6.32-5.57-9.62-8.16-13.71-10.72-27.19-21.73-40.98-32.34 7.1 11.95 14.58 23.67 21.8 35.55 4.14 6.5 7.84 13.29 12.37 19.54-.83.73-1.65 1.45-2.47 2.19l-.35-.45c-13.22-16.91-26.12-34.08-39.54-50.83 6.18 20.54 13.25 40.82 19.38 61.38-.88.37-1.75.74-2.62 1.13-.98-2.14-1.97-4.28-2.94-6.42-.78-1.69-1.52-3.39-2.26-5.09-7-15.76-13.69-31.66-21.1-47.22 1.16 21.3 3.19 42.56 4.04 63.88-.96.18-1.92.37-2.88.58-3.68-21.11-7.37-42.21-11.13-63.3-4.28 20.98-7.52 42.17-11.41 63.23-.77-.07-2.32-.21-3.09-.28 1.3-21.35 3.17-42.68 4.15-64.05-9.02 19.35-17.12 39.14-26.21 58.47-.69-.21-2.07-.64-2.76-.85 6.36-20.29 13.27-40.42 19.25-60.82-1.28 1.39-2.52 2.81-3.7 4.28-11.88 15.34-23.71 30.72-35.64 46.01-.6-.42-1.79-1.28-2.38-1.71 11.13-18.42 22.7-36.58 33.73-55.06-17.1 13.12-33.8 26.77-50.78 40.05-.72-.75-1.43-1.5-2.13-2.25 8.58-7.83 16.53-16.31 24.98-24.29 6.94-7.18 14.38-13.85 21.19-21.15-19.68 8.77-39.16 17.99-58.83 26.75l-.62.27c-.25-.97-.51-1.93-.77-2.88 15.91-9.43 31.81-18.9 47.74-28.3 2.32-1.37 4.58-2.84 6.75-4.43-20.96 3.41-41.72 7.92-62.63 11.62-.18-.74-.54-2.2-.72-2.94 20.64-6.39 41.46-12.26 62-18.98-21.56-1-43.11-2.26-64.67-3.39 0-.76 0-2.28-.01-3.04 21.56-1.31 43.13-2.39 64.7-3.32-4.14-1.66-8.42-2.93-12.69-4.2-16.47-4.85-32.83-10.08-49.33-14.82l-.77-.2c.83-.89 1.64-1.78 2.46-2.68 4.61.91 9.25 1.69 13.87 2.51l.51.1c15.74 3.05 31.44 6.39 47.28 8.82-1.72-1.27-3.5-2.46-5.33-3.55-16.43-9.68-32.79-19.48-49.22-29.14.3-1.01.6-2.03.88-3.05l.54.26c19.49 8.97 38.92 18.11 58.6 26.69-14.85-15.43-30.77-29.85-45.53-45.36-.3-1.57.28-2.21 1.75-1.92 17.14 13.11 33.82 26.82 50.85 40.07-10.87-18.65-22.93-36.61-33.6-55.37l-.41-.85c.62-.08 1.86-.24 2.48-.32 3.73 3.58 6.51 7.98 9.74 11.98 9.99 12.62 19.46 25.66 29.77 38.01-6.05-20.4-12.88-40.57-19.31-60.85.57-.34 1.71-1.03 2.28-1.37l.32.55c4.09 7.4 7.02 15.36 10.59 23.02 5.31 11.59 10.04 23.47 15.71 34.89-.88-21.22-2.8-42.4-4.09-63.61m-3.79 86.77c-.04 9.37-.04 18.75-.03 28.13-.17 2.85 1.17 5.76 3.67 7.24 2.44 1.7 5.56 1.06 8.34 1.44 2.42.01 3.9 2.33 6.1 2.93 1.77.02 2.85-1.78 4.2-2.68 3.76-.74 8.25.49 11.34-2.34 2.28-1.82 2.95-4.84 2.84-7.62-.03-9.03.05-18.07-.07-27.11-12.13-.01-24.26-.01-36.39.01z" fill="#f0b501"/><path d="m112.51 9.34c2.77-1.44 6.46 1.44 5.64 4.52-.46 3.05-4.93 4.38-6.85 1.83-1.94-1.88-1.1-5.2 1.21-6.35z" fill="#fff"/><path d="m30.5 52.4c2.24-2.03 6.42-.39 6.5 2.7.5 2.98-3.16 5.55-5.77 3.99-2.63-1.04-2.96-5.07-.73-6.69z" fill="#fff"/><path d="m193.31 52.06c2.65-1.74 6.65.66 5.98 3.88.12 3.71-5.61 4.83-7.28 1.77-.99-1.8-.75-4.66 1.3-5.65z" fill="#fff"/><path d="m99.67 97.1c9.66-.77 19.4-.19 29.1-.31-.03 6.41-.03 12.82-.01 19.23-.07 2.93.48 6.09-1.2 8.71-9.46-9.05-18.48-18.54-27.89-27.63z" fill="#fff"/><path d="m112.34 206.15c2.88-1.7 6.94 1.45 5.71 4.67-.57 2.55-3.96 3.77-6.05 2.23-2.52-1.49-2.31-5.65.34-6.9z" fill="#fff"/><g fill="#000001"><path d="m102.92 5.79c7.48-.78 15.06-.83 22.53.02-3.67 21.16-7.32 42.32-11.22 63.44-3.98-21.11-7.51-42.31-11.31-63.46m9.59 3.55c-2.31 1.15-3.15 4.47-1.21 6.35 1.92 2.55 6.39 1.22 6.85-1.83.82-3.08-2.87-5.96-5.64-4.52z"/><path d="m94.33 7.01c1.82-.34 3.65-.63 5.49-.85 1.29 21.21 3.21 42.39 4.09 63.61-5.67-11.42-10.4-23.3-15.71-34.89-3.57-7.66-6.5-15.62-10.59-23.02 2.67-1.28 5.54-2.08 8.34-3.03-1.58 2.22-2.63 5.38-.44 7.62 2.47 1.6 5.82.56 8.24 2.47-1.87 1.62-4.28 2.04-6.65 2.37-.04.75-.1 2.27-.14 3.03 2.88-.05 6.06-.06 8.44-1.92 2.49-1.77 2.43-6.1-.11-7.76-2.36-.9-4.96-.77-7.37-1.53 1.33-2.17 3.79-2.43 6.09-2.48.12-1.21.23-2.41.32-3.62z"/><path d="m128.34 6.16c2.86.35 5.69.86 8.57 1.14-1.78 1.45-4.45 2.9-3.95 5.63-.02 3.8 5.86 3.71 5.6 7.58-2.21-.2-4.33-.86-6.41-1.58-.48.99-.96 1.97-1.43 2.96 2.76 1.1 5.77 2.77 8.82 1.82 2.69-.6 4.06-3.83 3.27-6.33-1.55-2.26-4.32-3.24-6.01-5.39 2.23-1.01 4.47-.04 6.53.86.75-1.07 1.51-2.13 2.28-3.17 1.6.64 3.22 1.25 4.83 1.87-6.42 15.14-13.3 30.08-19.87 45.15-1.84 4.17-3.54 8.44-5.94 12.33.56-20.98 3.09-41.89 3.71-62.87z"/><path d="m67.77 15.49c2.42-.92 4.8-1.92 7.24-2.81 6.43 20.28 13.26 40.45 19.31 60.85-10.31-12.35-19.78-25.39-29.77-38.01-3.23-4-6.01-8.4-9.74-11.98 1.84-1.61 3.93-2.89 5.99-4.19-1.05 3.51-1.44 7.7 1.31 10.58 4.59 5.62 15.15 1.34 14.65-5.86-.03-4.86-4.37-8.34-8.99-8.58z"/><path d="m133.76 74.22c6.41-20.56 13.02-41.07 19.69-61.56 2.5.94 4.93 2.04 7.45 2.92-4.72-.09-9.22 3.5-9.18 8.42-.64 6.88 9.04 11.34 13.92 6.55 3.38-2.9 3.46-7.8 1.51-11.54 2.07 1.4 4.22 2.68 6.25 4.15-13.21 17.02-26.26 34.18-39.64 51.06z"/><path d="m65.54 20.39c4.38-3.57 9.7 4.7 5.46 7.71-4.25 3.39-9.67-4.8-5.46-7.71z"/><path d="m158.42 20.18c1.91-1.6 5.12-.24 5.75 2.04 1.13 3.33-2.79 8.35-6.36 6.09-3.36-1.74-1.96-6.38.61-8.13z"/><path d="m49.6 26.89c1.04-.73 2.09-1.46 3.14-2.18 10.67 18.76 22.73 36.72 33.6 55.37-17.03-13.25-33.71-26.96-50.85-40.07.75-.94 1.52-1.87 2.3-2.79 3.73 3.55 7.47 7.08 11.07 10.76.9-.88 1.8-1.76 2.69-2.64-2.21-2.02-4.22-4.24-6.1-6.57 3.46.83 6.71 2.54 10.24 3.03 1.1-.76 2.09-1.66 3.1-2.53-3.15-4.06-6.16-8.23-9.19-12.38z"/><path d="m175.83 24.85c1.78 1.17 3.5 2.43 5.25 3.65-3.09 4.14-6.59 7.96-9.68 12.1 2.63 2.17 5.09 4.54 7.67 6.78.83-.8 1.64-1.62 2.42-2.46-1.35-1.69-3.28-2.92-4.36-4.81 2.34-2.98 4.94-5.75 7.46-8.58 2.93 2.74 5.86 5.48 8.52 8.48-17.2 12.66-33.34 26.74-50.54 39.41 10.68-18.43 22.38-36.26 33.26-54.57z"/><path d="m41.85 33.41c1.41-1.28 2.84-2.54 4.27-3.79 1.97 2.25 3.89 4.55 5.6 7.02-3.34-.93-6.62-2.03-9.87-3.23z"/><path d="m20.67 60.6c3.59-6.7 7.91-13.07 13.07-18.67 14.76 15.51 30.68 29.93 45.53 45.36-19.68-8.58-39.11-17.72-58.6-26.69m9.83-8.2c-2.23 1.62-1.9 5.65.73 6.69 2.61 1.56 6.27-1.01 5.77-3.99-.08-3.09-4.26-4.73-6.5-2.7z"/><path d="m194.41 41.82c5.46 5.39 9.5 12.03 13.32 18.64-19.53 9.51-39.49 18.11-59.16 27.33 7.79-7.94 15.79-15.69 23.72-23.49 7.24-7.62 15.44-14.35 22.12-22.48m-1.1 10.24c-2.05.99-2.29 3.85-1.3 5.65 1.67 3.06 7.4 1.94 7.28-1.77.67-3.22-3.33-5.62-5.98-3.88z"/><path d="m19.25 63.39c16.43 9.66 32.79 19.46 49.22 29.14 1.83 1.09 3.61 2.28 5.33 3.55-15.84-2.43-31.54-5.77-47.28-8.82.34-1.48.79-2.94 1.1-4.43-.75-.96-1.71-1.72-2.59-2.54.51-1.37 1.01-2.74 1.5-4.12 1.36-.25 2.73-.46 4.1-.66.49-1.22.99-2.44 1.49-3.66-5.5-.39-11.02-.24-16.52-.62 1.05-2.69 2.25-5.32 3.65-7.84z"/><path d="m154.35 96.21c17.92-11.45 36.59-21.72 54.71-32.86 1.6 2.57 2.71 5.4 3.98 8.14-4.76 2.01-9.58 3.85-14.36 5.81.45 1.22.91 2.44 1.37 3.67 4.7-1.61 9.34-3.42 14.08-4.93 2.12 1.88 2.02 5.7 3.09 8.37-20.95 3.96-41.85 8.24-62.87 11.8z"/><path d="m18.28 75.02c1.69.07 3.38.16 5.07.27-.34 1.02-.69 2.04-1.05 3.05-1.37-1.07-2.72-2.16-4.02-3.32z"/><path d="m11.11 84.46c.87-2.91 1.7-5.82 2.67-8.69 4.01 3.86 8.81 6.98 12.23 11.39-4.62-.82-9.26-1.6-13.87-2.51z"/><path d="m10.45 87.53c16.5 4.74 32.86 9.97 49.33 14.82 4.27 1.27 8.55 2.54 12.69 4.2-21.57.93-43.14 2.01-64.7 3.32-.04-1.61.01-3.22.15-4.82 5.1.34 10.2.54 15.3.92.13-1.26.26-2.53.38-3.79-2.17-.28-4.33-.55-6.46-1.04 1.89-1.93 4.45-2.74 6.99-3.38.24-1.47.46-2.93.66-4.4-2.52.87-5.01 1.9-7.28 3.33-1.01-1.39-1.8-3.34-3.75-3.56-2.12-.71-3.56 1.35-4.94 2.57.47-2.74.97-5.47 1.63-8.17z"/><path d="m167.77 102.62c16.79-4.96 33.48-10.26 50.3-15.11.1.89.31 2.67.42 3.57-4.5 2.49-9.21 4.58-13.64 7.18-.69 1.44.02 3.08-.01 4.6 5.22 1.26 10.44 2.5 15.67 3.66.08 1.14.15 2.27.2 3.41-21.68-1.34-43.39-2.6-65.11-3.25 3.99-1.56 8.07-2.84 12.17-4.06z"/><path d="m96.03 92.93c12.13-.02 24.26-.02 36.39-.01.12 9.04.04 18.08.07 27.11.11 2.78-.56 5.8-2.84 7.62-3.09 2.83-7.58 1.6-11.34 2.34-1.35.9-2.43 2.7-4.2 2.68-2.2-.6-3.68-2.92-6.1-2.93-2.78-.38-5.9.26-8.34-1.44-2.5-1.48-3.84-4.39-3.67-7.24-.01-9.38-.01-18.76.03-28.13m3.64 4.17c-.12 7.65-.16 15.31-.08 22.96-.06 2.3.69 5.61 3.49 5.8 3.78.08 7.52.47 11.06 1.88 4.52-1.53 9.27-1.84 13.98-2.49l-.56-.52c1.68-2.62 1.13-5.78 1.2-8.71-.02-6.41-.02-12.82.01-19.23-9.7.12-19.44-.46-29.1.31z"/><path d="m209.32 100.08c3.35-1.64 6.74-3.18 10.16-4.65.37 2.27.64 4.56.84 6.85-3.69-.64-7.35-1.39-11-2.2z"/><path d="m10.65 100.52c.77-1.33 1.57-2.65 2.41-3.94 1.24 1.15 3.18 3.38.99 4.69-1.15-.19-2.28-.43-3.4-.75z"/><path d="m7.78 112.91c21.56 1.13 43.11 2.39 64.67 3.39-20.54 6.72-41.36 12.59-62 18.98-.38-1.58-.74-3.16-1.12-4.74 1.17-.29 2.35-.57 3.54-.83-.13-1.27-.24-2.53-.36-3.79 3.79-.52 7.56-1.12 11.36-1.52-.03-1.27-.06-2.53-.09-3.79-3.92-.03-7.77.84-11.69.82-.17-.84-.52-2.51-.69-3.35-1.16-.1-2.32-.18-3.48-.25-.17-1.63-.22-3.28-.14-4.92z"/><path d="m156.29 116.36c21.47-1.2 42.96-2.22 64.42-3.5 0 3.05-.8 6.21.23 9.17-1.63-2.33-4.3-5.21-7.42-3.68-2.95.94-2.25 6.32-5.66 5.98-.83-2.05.18-4.15.58-6.16-.74-.35-2.22-1.05-2.96-1.4-1.08 2.99-2.32 6.41-.8 9.49 1.36 2.94 6.44 3.65 7.96.48 1.16-1.35 1.26-4.09 3.27-4.36 1.7 1.71.26 4.02-.05 5.98 1.1.55 2.19 1.09 3.3 1.62-.41 1.76-.83 3.53-1.35 5.27-20.48-6.4-41.16-12.13-61.52-18.89z"/><path d="m153.58 126.17c21.21 3.95 42.38 8.17 63.61 12.02-.36 1.61-.79 3.2-1.23 4.8-1.22-.25-2.44-.49-3.66-.71-.31.85-.93 2.55-1.24 3.4-3.68-1.37-7.37-2.7-11.08-3.97-.42 1.25-.83 2.51-1.19 3.78 3.59 1.41 7.18 2.85 10.75 4.31-.5 1.19-1 2.38-1.51 3.57 1.13.5 2.26 1 3.4 1.51-.74 1.48-1.49 2.96-2.29 4.42-18.53-11.03-37.22-21.8-55.56-33.13z"/><path d="m11.17 138.22c20.91-3.7 41.67-8.21 62.63-11.62-2.17 1.59-4.43 3.06-6.75 4.43-15.93 9.4-31.83 18.87-47.74 28.3-1.36-2.32-2.45-4.78-3.58-7.21 2.06.5 4.46 1.57 6.37.06 2.83-1.89 1.31-5.67 1.79-8.44 3.22-.86 2.99 3.25 3.6 5.3 1.15-.06 2.3-.13 3.45-.2-.56-3.2-1.01-7.09-4.13-8.88-2.26-1.14-6.01-.49-6.76 2.27-.41 2.47.18 5.07-.91 7.42-1.48-1.66-2.02-3.86-3.25-5.64-1 .02-2 .08-3 .17-.62-1.98-1.19-3.96-1.72-5.96z"/><path d="m20.7 161.94c19.67-8.76 39.15-17.98 58.83-26.75-6.81 7.3-14.25 13.97-21.19 21.15-8.45 7.98-16.4 16.46-24.98 24.29-.54-.69-1.61-2.06-2.15-2.75 2.99-4.31 6.19-8.48 8.93-12.95-.14-1.57-1.49-2.69-2.23-4-5.24 1.37-10.47 2.74-15.72 4.09-.5-1.03-1-2.05-1.49-3.08z"/><path d="m149.55 135.66c19.6 8.41 38.85 17.64 58.28 26.44-1.46 2.64-3.03 5.22-4.7 7.73-4.2-2.79-8.44-5.53-12.56-8.44-1.01.93-1.87 2-2.62 3.15 4.21 3.02 8.45 6 12.58 9.14-1.82 2.4-3.62 4.85-5.85 6.89-14.82-15.2-30.6-29.44-45.13-44.91z"/><path d="m35.49 182.88c16.98-13.28 33.68-26.93 50.78-40.05-11.03 18.48-22.6 36.64-33.73 55.06-1.77-1.18-3.46-2.46-5.13-3.77 3.27-3.95 6.46-7.96 9.7-11.94-2.67-2.23-5.21-4.61-7.8-6.94-.84.9-1.69 1.79-2.54 2.7 1.62 1.46 3.24 2.93 4.86 4.4-2.52 2.99-5.12 5.92-7.74 8.83-2.93-2.63-5.85-5.29-8.4-8.29z"/><path d="m142.03 142.67c13.79 10.61 27.27 21.62 40.98 32.34 3.3 2.59 6.68 5.13 9.62 8.16-.92.98-1.83 1.96-2.74 2.95-2.08-1.41-4.37-1.09-6.52-.04-2.31-2.79-4.87-5.36-7.25-8.09-1 .84-2 1.67-3 2.5 2.35 3.06 4.88 5.98 7.48 8.84-.87.89-1.74 1.77-2.62 2.64.57 1.13 1.15 2.26 1.67 3.43-.86.59-2.58 1.77-3.45 2.36-4.53-6.25-8.23-13.04-12.37-19.54-7.22-11.88-14.7-23.6-21.8-35.55z"/><path d="m133.84 148.67c13.42 16.75 26.32 33.92 39.54 50.83-2.39 1.85-5.01 3.38-7.63 4.88-2.57-4.49-4.98-9.06-7.53-13.56-1.17.63-2.35 1.27-3.51 1.92 2.34 4.54 4.57 9.13 6.89 13.69-2.69 1.43-5.46 2.72-8.38 3.62-6.13-20.56-13.2-40.84-19.38-61.38z"/><path d="m90.56 153.59c1.18-1.47 2.42-2.89 3.7-4.28-5.98 20.4-12.89 40.53-19.25 60.82-1.94-.76-3.85-1.58-5.77-2.38 2.02-4.76 4.56-9.29 6.4-14.13-3.09-1.39-6.03-3.04-8.94-4.75-.64 1.05-1.28 2.09-1.91 3.14 1.88 1.11 3.77 2.18 5.68 3.24-1.67 3.53-3.61 6.92-5.33 10.42-3.5-1.85-6.92-3.87-10.22-6.07 11.93-15.29 23.76-30.67 35.64-46.01z"/><path d="m77.77 210.98c9.09-19.33 17.19-39.12 26.21-58.47-.98 21.37-2.85 42.7-4.15 64.05-2.96-.39-5.9-.9-8.81-1.54 1.09-5.08 2.41-10.11 3.37-15.22-1.33-.16-2.66-.29-3.99-.4-1.05 4.88-2.6 9.63-3.74 14.49-3.04-.71-6.07-1.56-8.89-2.91z"/><path d="m124.3 152.45c7.41 15.56 14.1 31.46 21.1 47.22-1.27 1.95-3.44 2.61-5.56 3.22-.44-1.33-.88-2.66-1.31-3.99-3.11.86-6.27 1.51-9.42 2.2.26 1.12.53 2.24.8 3.37 2.39-.22 5.16-1.57 7 .69-1.93.81-3.98 1.3-6.01 1.8.09.78.26 2.33.35 3.11 2.2.16 6.37-2.67 6.39 1.02-2.03.7-4.16 1.04-6.26 1.38.12 1.28.25 2.55.37 3.84-1.14.02-2.27.03-3.41.02-.85-21.32-2.88-42.58-4.04-63.88z"/><path d="m102.92 216.84c3.89-21.06 7.13-42.25 11.41-63.23 3.76 21.09 7.45 42.19 11.13 63.3-7.47.83-15.07.92-22.54-.07m9.42-10.69c-2.65 1.25-2.86 5.41-.34 6.9 2.09 1.54 5.48.32 6.05-2.23 1.23-3.22-2.83-6.37-5.71-4.67z"/><path d="m24.53 168.66c3.48-1.04 6.94-2.16 10.49-2.94-2.02 3.02-4.31 5.85-6.67 8.6-1.28-1.88-2.55-3.77-3.82-5.66z"/><path d="m140.57 206.21c1-.39 2-.79 2.99-1.18-.5 1.93-1.02 3.87-1.6 5.79-.46-1.54-.92-3.08-1.39-4.61z"/><path d="m145.14 212.27c.75-2.53 1.61-5.03 2.52-7.51.97 2.14 1.96 4.28 2.94 6.42-1.74.19-4.02 2.58-5.46 1.09z"/></g><path d="m99.67 97.1c9.41 9.09 18.43 18.58 27.89 27.63l.56.52c-4.71.65-9.46.96-13.98 2.49-3.54-1.41-7.28-1.8-11.06-1.88-2.8-.19-3.55-3.5-3.49-5.8-.08-7.65-.04-15.31.08-22.96z" fill="#bb023a"/></svg>